<?xml version="1.0" encoding="utf-8"?>
<!-- Generator: Adobe Illustrator 16.0.0, SVG Export Plug-In . SVG Version: 6.00 Build 0)  -->
<!DOCTYPE svg PUBLIC "-//W3C//DTD SVG 1.1//EN" "http://www.w3.org/Graphics/SVG/1.1/DTD/svg11.dtd">
<svg version="1.1" id="Layer_1" xmlns="http://www.w3.org/2000/svg" xmlns:xlink="http://www.w3.org/1999/xlink" x="0px" y="0px"
	 width="256px" height="256px" viewBox="0 0 256 256" enable-background="new 0 0 256 256" xml:space="preserve">
<g>
	<path fill="#EDEDED" d="M32.475,46.165v187.191c0,12.456,10.188,22.645,22.643,22.645h145.764
		c12.455,0,22.643-10.188,22.643-22.645V46.165H32.475z"/>
	<path fill="#95CEB4" d="M200.882,4.246H55.118c-12.456,0-22.643,10.188-22.643,22.643v12.853v6.423v6.429h191.05v-6.429v-6.423
		V26.889C223.524,14.434,213.337,4.246,200.882,4.246z"/>
	<g>
		<circle fill="#FFFFFF" cx="188.145" cy="21.991" r="8.96"/>
		<circle fill="#FFFFFF" cx="158.073" cy="21.991" r="8.961"/>
		<circle fill="#FFFFFF" cx="127.999" cy="21.991" r="8.961"/>
		<circle fill="#FFFFFF" cx="97.927" cy="21.991" r="8.961"/>
		<circle fill="#FFFFFF" cx="67.854" cy="21.991" r="8.96"/>
	</g>
	<g>
		<g>
			<path fill="#48707C" d="M188.146,26.236c-2.345,0-4.246-1.896-4.246-4.246V4.246c0-2.344,1.901-4.246,4.246-4.246
				c2.344,0,4.245,1.902,4.245,4.246v17.745C192.391,24.34,190.489,26.236,188.146,26.236z"/>
		</g>
		<g>
			<path fill="#48707C" d="M158.072,26.236c-2.343,0-4.246-1.896-4.246-4.246V4.246c0-2.344,1.903-4.246,4.246-4.246
				c2.344,0,4.246,1.902,4.246,4.246v17.745C162.318,24.34,160.416,26.236,158.072,26.236z"/>
		</g>
		<g>
			<path fill="#48707C" d="M128,26.236c-2.344,0-4.246-1.896-4.246-4.246V4.246C123.754,1.902,125.656,0,128,0
				c2.344,0,4.245,1.902,4.245,4.246v17.745C132.245,24.34,130.344,26.236,128,26.236z"/>
		</g>
		<g>
			<path fill="#48707C" d="M97.926,26.236c-2.342,0-4.246-1.896-4.246-4.246V4.246C93.681,1.902,95.584,0,97.926,0
				c2.344,0,4.246,1.902,4.246,4.246v17.745C102.172,24.34,100.271,26.236,97.926,26.236z"/>
		</g>
		<g>
			<path fill="#48707C" d="M67.854,26.236c-2.344,0-4.246-1.896-4.246-4.246V4.246C63.609,1.902,65.51,0,67.854,0
				S72.1,1.902,72.1,4.246v17.745C72.1,24.34,70.199,26.236,67.854,26.236z"/>
		</g>
	</g>
	<g>
		<g>
			<rect x="32.475" y="86.304" fill="#C6C6C6" width="191.05" height="2.831"/>
		</g>
		<g>
			<rect x="32.475" y="108.477" fill="#C6C6C6" width="191.05" height="2.831"/>
		</g>
		<g>
			<rect x="32.475" y="130.65" fill="#C6C6C6" width="191.05" height="2.83"/>
		</g>
		<g>
			<rect x="32.475" y="152.824" fill="#C6C6C6" width="191.05" height="2.829"/>
		</g>
		<g>
			<rect x="32.475" y="174.991" fill="#C6C6C6" width="191.05" height="2.83"/>
		</g>
		<g>
			<rect x="32.475" y="197.165" fill="#C6C6C6" width="191.05" height="2.829"/>
		</g>
		<g>
			<rect x="32.475" y="219.338" fill="#C6C6C6" width="191.05" height="2.83"/>
		</g>
	</g>
	<path opacity="0.15" d="M200.882,4.246h-8.491c0-2.344-1.901-4.246-4.245-4.246c-2.345,0-4.246,1.902-4.246,4.246h-21.581
		c0-2.344-1.902-4.246-4.246-4.246c-2.343,0-4.246,1.902-4.246,4.246h-21.581C132.245,1.902,130.344,0,128,0v256h72.882
		c12.455,0,22.643-10.188,22.643-22.645v-11.188v-2.83v-19.344v-2.829v-19.344v-2.83v-19.338v-2.829V133.48v-2.83v-19.343v-2.831
		V89.135v-2.831v-33.71v-6.429v-6.423V26.889C223.524,14.434,213.337,4.246,200.882,4.246z"/>
</g>
</svg>
